<svg version="1.1" id="Layer_1" xmlns="http://www.w3.org/2000/svg" xmlns:xlink="http://www.w3.org/1999/xlink" x="0px" y="0px"
	 width="100%" viewBox="0 0 1024 1024" enable-background="new 0 0 1024 1024" xml:space="preserve">
<path fill="#000000" opacity="1.000000" stroke="none" 
	d="
M828.468628,1025.000000 
	C827.448425,1014.322266 830.381958,1003.902527 830.152283,993.187256 
	C830.005615,986.347778 833.856934,980.475464 838.380493,975.408630 
	C840.450623,973.089905 842.837097,971.807190 846.311157,973.655579 
	C851.427856,976.377930 854.610535,974.902588 855.802002,969.209595 
	C856.564819,965.564758 858.332581,964.039429 861.828308,963.942566 
	C864.952271,963.856018 866.765198,962.346863 867.026978,959.087830 
	C867.569763,952.329468 872.879944,947.644104 874.831421,941.439514 
	C875.462646,939.432739 878.151489,938.701538 880.292114,938.338257 
	C885.378540,937.475037 890.509094,936.141785 895.606506,936.206543 
	C913.109985,936.428833 930.557251,934.692017 948.039185,934.931458 
	C963.012817,935.136475 977.819214,938.653809 992.824646,937.961731 
	C1002.301758,937.524536 1010.014893,940.828552 1017.078064,946.587585 
	C1019.191956,948.311157 1021.512451,949.549072 1024.694092,949.074097 
	C1025.000000,974.292664 1025.000000,999.585388 1025.000000,1025.000000 
	C959.645813,1025.000000 894.291565,1025.000000 828.468628,1025.000000 
M971.299805,980.632080 
	C971.974548,984.850952 969.116882,989.190735 971.274048,993.861755 
	C974.864136,991.908569 973.324219,988.716675 974.278809,986.452148 
	C974.921265,984.927979 974.964355,982.891357 977.277405,983.276978 
	C979.526794,983.652039 978.994263,985.695496 979.267883,987.282471 
	C979.635925,989.416626 977.039917,990.659607 977.739197,992.918640 
	C979.510498,994.024658 981.736389,994.266785 982.198425,992.098755 
	C982.878174,988.909119 982.683044,985.494934 982.578491,982.185303 
	C982.427795,977.418335 976.723511,981.067444 975.388672,977.566650 
	C977.302551,974.768372 980.700806,975.005798 982.341492,976.327759 
	C986.423767,979.617126 986.682373,984.488831 985.109070,989.814636 
	C987.845642,989.720520 988.792603,992.321350 991.020813,993.224854 
	C992.150269,991.630188 991.325256,990.115112 991.504272,988.717651 
	C991.690186,987.266968 993.115356,986.106323 992.512695,984.464294 
	C987.135437,981.251221 987.061646,978.009644 992.367126,974.499817 
	C992.213074,972.738892 992.064270,970.949829 990.627380,969.456360 
	C987.119873,970.563232 982.885376,968.531311 979.962891,972.140076 
	C979.749146,972.404053 978.993774,972.322693 978.508728,972.259705 
	C971.189758,971.308472 971.342285,974.386047 971.299805,980.632080 
M945.785461,992.457153 
	C952.677246,994.947144 959.479431,993.570801 967.030396,993.195251 
	C964.979492,989.397034 962.517883,990.642822 960.561829,990.289490 
	C959.110718,990.027161 958.006409,989.593750 957.912354,987.901855 
	C957.821655,986.272400 958.724121,985.568970 960.171692,985.114868 
	C961.552124,984.681824 963.689697,985.687744 964.149231,983.339966 
	C963.622131,982.029236 962.502502,982.186951 961.561768,982.031311 
	C959.697571,981.722656 957.689392,981.493896 958.050659,978.874390 
	C958.366882,976.581970 960.338257,976.936523 961.949158,976.707581 
	C963.577393,976.476318 965.761963,977.467041 966.644043,974.309387 
	C963.440308,972.062256 957.492004,975.135925 956.480652,967.629150 
	C953.485413,973.772278 950.962708,974.132080 948.608765,969.356995 
	C944.905823,974.019287 945.492615,975.964111 950.539490,976.680847 
	C952.246338,976.923218 954.003052,976.962463 954.097900,979.260376 
	C954.193604,981.578003 952.445984,981.796753 950.746521,982.075012 
	C949.705505,982.245544 948.262695,981.820923 948.121582,983.562927 
	C948.403625,984.595032 949.282166,984.666321 950.074036,984.873840 
	C951.935059,985.361633 954.414062,985.258850 954.078918,988.206116 
	C953.767212,990.946899 951.432983,990.104309 949.757507,990.313293 
	C948.322876,990.492310 946.673645,990.020142 945.785461,992.457153 
M917.663513,972.138367 
	C915.786133,977.827209 913.890015,983.510010 912.045227,989.209351 
	C911.607605,990.561523 910.500488,992.264465 912.283203,993.216064 
	C914.201599,994.240173 914.726807,992.320312 915.483704,991.060730 
	C918.286865,986.395752 924.212158,986.373535 926.743408,991.089172 
	C927.689331,992.851501 928.443970,994.392639 931.482117,992.822571 
	C929.244507,986.012268 927.241882,979.023499 924.605530,972.282471 
	C923.348999,969.069702 920.528381,969.490173 917.663513,972.138367 
M898.662903,982.351196 
	C898.306580,980.367737 899.781982,977.420593 897.033997,976.675964 
	C893.890564,975.824219 890.444336,975.756409 887.235962,976.891968 
	C886.689636,977.085388 886.175171,978.261108 886.181335,978.978333 
	C886.221252,983.590393 884.487000,988.868225 887.093140,992.601257 
	C889.112549,995.494019 893.970032,993.327209 897.545288,993.676392 
	C899.355103,993.853088 901.201355,993.699341 903.029053,993.635498 
	C904.272034,993.592102 905.368408,993.278992 905.317078,991.237427 
	C900.742310,988.829834 895.122742,991.809753 890.078186,989.294617 
	C891.382812,987.433105 892.942505,987.589050 894.332031,987.668701 
	C897.580933,987.854858 898.954529,986.382019 898.662903,982.351196 
M875.932617,984.670959 
	C880.289368,983.800659 878.549194,980.347534 878.599548,977.882019 
	C878.658997,974.967834 876.175354,975.295166 874.224243,975.258728 
	C871.415405,975.206177 868.597961,975.348877 865.797363,975.184326 
	C862.352539,974.981873 860.145630,975.534546 860.209412,979.887329 
	C860.268555,983.927551 861.934326,985.091858 865.630615,984.827026 
	C868.755981,984.603210 871.907043,984.737976 875.932617,984.670959 
M893.807068,970.291138 
	C892.350220,970.033630 890.894531,969.769043 889.436157,969.520630 
	C888.000549,969.276123 886.692688,969.400940 886.409851,971.163635 
	C886.130432,972.905334 887.201172,973.562500 888.742737,973.603271 
	C890.729980,973.656006 892.719177,973.637756 894.707581,973.643494 
	C902.434082,973.665649 903.287292,974.634583 902.279114,982.271912 
	C902.214417,982.762268 902.145081,983.265747 901.976685,983.726074 
	C901.445312,985.178040 900.789246,986.900635 902.865112,987.391296 
	C905.071594,987.912903 905.654114,986.197327 905.702454,984.335999 
	C905.728210,983.342163 905.731506,982.347595 905.736328,981.353394 
	C905.789978,970.319092 905.789490,970.319092 893.807068,970.291138 
M864.602783,987.551514 
	C862.978699,989.203979 860.535706,990.000305 859.322205,992.211243 
	C863.871277,994.704956 877.613525,994.295166 880.500977,991.476501 
	C878.212280,990.557495 876.698425,988.723083 874.723877,987.037659 
	C871.655884,990.823120 868.526062,991.648071 864.602783,987.551514 
M938.516052,970.565857 
	C936.851501,970.102295 935.871155,970.723755 935.862122,972.456665 
	C935.826050,979.386108 935.847290,986.315857 935.847290,993.112183 
	C938.543823,994.006714 939.591125,992.856995 939.564026,990.872925 
	C939.473572,984.257202 940.364563,977.613525 938.516052,970.565857 
M865.639526,972.608154 
	C870.601074,972.561096 875.585510,972.719360 880.543457,971.550964 
	C879.825623,968.584717 877.853027,969.308899 876.370972,969.214233 
	C872.588135,968.972412 868.797058,968.835266 865.007263,968.737061 
	C862.686035,968.676819 859.018127,967.711731 858.999023,970.823486 
	C858.980286,973.869568 862.698120,972.131531 865.639526,972.608154 
z"/>
<path fill="#000000" opacity="1.000000" stroke="none" 
	d="
M781.285095,676.234741 
	C750.753357,709.160278 712.606873,725.646851 669.039062,731.352783 
	C650.517029,733.778564 632.185303,733.082031 613.801575,730.429749 
	C607.850220,729.571167 601.818054,729.739685 595.837463,730.363953 
	C589.562927,731.018982 588.051697,733.436157 590.172119,739.378296 
	C591.991211,744.476196 591.157837,749.671936 587.434082,752.826477 
	C575.915222,762.584412 565.872681,774.499451 551.898926,780.879456 
	C537.239746,787.572449 521.458130,788.990723 505.450195,787.546814 
	C494.005920,786.514587 484.366272,773.726990 483.044403,764.793335 
	C481.886139,756.965515 478.539276,749.387573 481.228729,741.200378 
	C482.009857,738.822510 479.838379,738.197205 477.880707,737.932129 
	C473.882965,737.390747 470.040253,736.553711 466.881744,733.694031 
	C464.897034,731.896912 462.699341,732.154907 460.452850,733.599304 
	C458.979095,734.546875 457.265045,736.039001 455.454041,734.579956 
	C453.498383,733.004395 454.660736,730.925049 455.132416,729.014282 
	C455.450226,727.726807 455.812256,726.420349 455.882660,725.107849 
	C456.045776,722.066162 454.184418,720.132263 451.820282,718.702515 
	C449.729919,717.438416 447.759979,718.247314 445.695801,719.251526 
	C439.956055,722.044006 436.915314,727.139282 433.936127,732.361938 
	C418.790253,758.912903 401.070831,783.695557 381.789825,807.354736 
	C376.121796,814.309753 369.810852,820.807312 363.280884,826.970154 
	C358.877808,831.125610 357.987915,835.666809 359.524811,840.968689 
	C361.146454,846.562805 363.214813,852.025940 364.985657,857.578918 
	C366.844818,863.408752 365.661224,866.143188 360.187195,868.941223 
	C353.671997,872.271362 346.390320,872.643127 339.418030,874.171509 
	C335.008301,875.138123 330.732483,876.282654 326.558105,878.091614 
	C319.567963,881.120911 312.963531,883.516785 306.127594,876.314270 
	C302.440765,872.429810 296.102448,873.486023 290.883362,875.351318 
	C278.632080,879.729980 266.274872,883.782288 253.371567,885.686035 
	C227.866867,889.448914 203.388931,887.506653 180.477402,873.910034 
	C141.423294,850.733765 127.952148,793.537354 159.694992,756.271851 
	C174.036285,739.435486 192.335007,730.226074 214.624435,729.705322 
	C222.946671,729.510925 231.286148,729.752747 239.609146,730.042847 
	C242.870224,730.156616 245.329361,729.215759 247.638809,726.932251 
	C250.829346,723.777588 254.255020,720.849243 257.700317,717.967834 
	C259.919312,716.112000 262.501587,715.613281 265.124420,717.207336 
	C267.786865,718.825439 269.267578,721.245911 268.537262,724.356934 
	C267.637085,728.191406 268.721527,731.169067 271.400726,733.884705 
	C272.425262,734.923218 273.154449,736.315735 273.803925,737.651123 
	C277.095459,744.418762 281.245300,745.976868 288.122559,742.352173 
	C297.106354,737.617188 303.983643,730.204712 310.862213,722.998901 
	C340.649170,691.794678 364.187744,656.137512 384.676483,618.352844 
	C388.885071,610.591492 393.123138,602.842529 397.138397,594.981018 
	C400.219330,588.948730 398.992004,586.422180 392.408051,587.331360 
	C378.928009,589.192871 371.861328,583.683167 364.887787,571.902710 
	C342.741425,534.491089 320.994019,496.841522 298.818512,459.446198 
	C271.541992,413.448761 244.178238,367.499268 218.077820,320.816345 
	C213.219772,312.127289 208.561096,303.326721 203.892914,294.729523 
	C205.744705,292.487244 207.863159,292.983002 209.797394,292.934875 
	C258.943939,291.711426 308.095001,293.244202 357.241455,292.653839 
	C361.521149,292.602417 364.389862,293.931976 366.932556,297.355011 
	C380.826233,316.058838 397.375641,332.160065 415.708313,346.477997 
	C416.882874,347.395386 418.078247,348.385956 418.953888,349.571503 
	C435.421539,371.866394 457.599426,388.494934 476.872528,408.002411 
	C477.221619,408.355713 477.644196,408.636780 478.034546,408.948914 
	C485.210510,414.686798 488.776459,414.177765 493.707855,406.284058 
	C496.883087,401.201477 499.737061,395.912445 502.611176,390.648346 
	C524.755249,350.090973 548.759094,310.665070 576.787964,273.903839 
	C602.922241,239.627563 633.419922,209.738892 670.348267,186.956863 
	C692.932800,173.023926 717.215149,163.167999 743.126953,157.373062 
	C749.929077,155.851837 756.083435,152.402817 763.229004,151.622208 
	C772.680908,150.589661 781.713928,153.530243 791.058105,153.277710 
	C813.024963,152.684052 831.971619,161.911865 849.582214,173.538223 
	C859.392273,180.014755 865.655762,190.402710 869.940186,201.410477 
	C879.873657,226.931793 873.583069,253.647614 853.299866,272.078827 
	C845.298584,279.349548 835.511719,283.722076 825.280884,287.044617 
	C816.749146,289.815338 814.377625,292.503143 814.302368,301.421143 
	C814.087036,326.911011 814.618164,352.405365 814.611938,377.888123 
	C814.607361,396.526123 815.613159,415.169739 814.615234,433.829254 
	C814.002869,445.279968 814.013855,456.850342 817.112244,468.075226 
	C819.805664,477.833191 816.696594,487.243256 815.776672,496.789581 
	C815.712830,497.451691 815.443481,498.112488 815.477783,498.762909 
	C816.389526,516.064697 814.881897,533.326782 814.634338,550.609009 
	C814.236694,578.380615 815.195740,606.226929 805.775146,633.133606 
	C800.226562,648.981323 791.460815,662.739746 781.285095,676.234741 
M650.465759,269.985291 
	C665.986084,252.889648 683.364502,238.387558 705.381531,230.240005 
	C722.391296,223.945435 739.548035,221.809464 757.152100,227.672928 
	C764.623840,230.161560 769.718628,234.636536 771.696716,242.636169 
	C775.634521,258.561188 791.656494,269.415741 807.625610,270.623749 
	C825.944824,272.009583 845.593079,260.076965 853.446960,243.259995 
	C860.823120,227.465805 857.192505,207.399796 844.124451,193.686432 
	C828.711182,177.512024 808.489563,172.715103 787.374756,171.516006 
	C763.835510,170.179245 740.936462,174.542938 718.851013,182.737396 
	C685.797852,195.001312 657.917725,215.430893 632.127808,238.871429 
	C608.570801,260.282471 589.218994,285.344696 571.241821,311.481171 
	C534.900818,364.316101 505.623688,421.228668 475.547974,477.675903 
	C472.061462,484.219543 468.755463,490.859375 464.802765,498.550049 
	C463.023041,495.455597 461.789093,493.376953 460.617981,491.263428 
	C448.750580,469.845917 437.068085,448.323730 424.995209,427.022797 
	C403.312164,388.766052 381.350159,350.667419 359.665741,312.411469 
	C357.926300,309.342773 356.084869,308.257965 352.653778,308.269196 
	C313.826263,308.396484 274.998260,308.370972 236.170502,308.436340 
	C234.070236,308.439880 231.867889,307.966339 229.551071,309.162384 
	C230.507431,310.983337 231.358765,312.763428 232.347580,314.463562 
	C253.618622,351.036926 274.855713,387.630157 296.203400,424.158722 
	C314.608673,455.652435 333.110291,487.089996 351.634155,518.514160 
	C361.362732,535.017822 371.287720,551.405884 380.976318,567.932739 
	C382.507019,570.543884 384.161621,571.832275 387.266266,571.675537 
	C393.584076,571.356689 399.915924,571.266235 406.243256,571.198181 
	C413.155914,571.123840 420.069977,571.181274 426.766907,571.181274 
	C427.695770,573.333618 426.581421,574.547607 425.955719,575.859741 
	C409.732819,609.878479 391.654236,642.874695 371.143250,674.502625 
	C352.577850,703.130310 331.719757,729.867615 305.628632,752.158447 
	C296.054474,760.338074 285.729401,767.253845 273.378510,770.611023 
	C266.849426,772.385803 261.274841,771.134338 256.649567,765.892212 
	C254.235901,763.156738 251.603699,760.532593 248.727707,758.299194 
	C222.397034,737.851562 183.751465,746.993835 167.060089,777.537292 
	C153.020966,803.227356 160.060242,836.114929 183.787842,854.854431 
	C202.870132,869.925293 225.038467,871.639404 247.870712,868.304504 
	C277.542877,863.970520 303.896393,851.530579 327.320374,833.006897 
	C356.372925,810.032043 379.864441,781.915710 399.961060,751.082703 
	C433.071350,700.283569 459.924744,646.111877 483.798340,590.464050 
	C500.278320,552.050232 516.305847,513.436707 533.752869,475.450653 
	C554.191895,430.950317 575.069092,386.653473 599.430969,344.102692 
	C614.272278,318.180664 630.227478,293.040802 650.465759,269.985291 
M685.174500,466.500000 
	C685.164062,502.993500 685.268372,539.487549 685.096680,575.980286 
	C685.005920,595.268921 675.291504,608.580811 658.263672,613.658691 
	C633.271240,621.111633 610.515991,604.635498 609.869385,578.580078 
	C609.749512,573.750244 609.803223,568.915466 609.817688,564.083069 
	C609.838684,557.103271 609.854736,557.042908 603.033203,557.031433 
	C578.537720,556.990173 554.042297,556.988281 529.546814,556.982117 
	C516.286926,556.978760 516.201782,556.953247 511.108612,569.238098 
	C506.853699,579.501038 502.955505,589.496399 503.903656,601.374512 
	C505.849121,625.747131 514.545654,647.142944 530.103394,665.452698 
	C559.317566,699.834534 597.939880,714.957581 642.101135,716.470215 
	C672.965637,717.527344 702.283752,710.291992 729.360229,695.168030 
	C755.915771,680.334839 776.038269,659.475037 787.805054,631.070801 
	C794.991943,613.721985 797.595337,595.501343 797.617920,576.904419 
	C797.716370,495.917938 797.667053,414.931305 797.652954,333.944702 
	C797.649902,316.689819 789.691406,308.566559 772.224487,308.457794 
	C745.563232,308.291748 718.900391,308.366638 692.238220,308.389618 
	C685.525208,308.395386 685.275696,308.731628 685.271057,315.525269 
	C685.237305,365.516846 685.206909,415.508423 685.174500,466.500000 
z"/>
<path fill="#000000" opacity="1.000000" stroke="none" 
	d="
M923.755981,982.228027 
	C922.619751,984.728699 920.408203,984.789246 919.298889,983.462891 
	C917.493530,981.304443 919.262451,979.340576 920.737671,977.564209 
	C923.095032,978.271851 923.149658,980.248657 923.755981,982.228027 
z"/>
<path fill="#000000" opacity="1.000000" stroke="none" 
	d="
M892.091919,984.227722 
	C889.885437,984.024963 889.000671,983.070984 889.458801,981.249634 
	C889.876343,979.589722 891.334839,979.648621 892.631836,979.637329 
	C893.868896,979.626526 894.885193,980.032471 895.049255,981.491272 
	C895.264221,983.402161 894.250610,984.161377 892.091919,984.227722 
z"/>
<path fill="#000000" opacity="1.000000" stroke="none" 
	d="
M872.319641,981.591675 
	C869.409668,981.858276 866.816406,982.348755 864.192932,979.836487 
	C868.048096,978.171265 871.224548,978.401184 874.392395,979.333435 
	C874.741882,981.071655 873.606750,981.177795 872.319641,981.591675 
z"/>
</svg>
