<svg version="1.1" id="Layer_1" xmlns="http://www.w3.org/2000/svg" xmlns:xlink="http://www.w3.org/1999/xlink" x="0px" y="0px"
	 width="100%" viewBox="0 0 1024 1024" enable-background="new 0 0 1024 1024" xml:space="preserve">
<path fill="#000000" opacity="1.000000" stroke="none" 
	d="
M428.000000,964.119263 
	C309.668152,964.120911 191.836273,964.123474 74.004417,964.117310 
	C70.671822,964.117126 67.331131,964.151794 64.008514,963.942749 
	C58.902363,963.621399 55.825825,961.089355 55.931282,957.557312 
	C56.041576,953.863220 58.986385,951.703247 64.294434,951.694702 
	C90.794106,951.651794 117.293869,951.658875 143.793594,951.651855 
	C148.460205,951.650635 153.159286,951.326233 157.784302,951.768677 
	C162.420853,952.212219 163.894821,949.991638 164.570404,945.980286 
	C168.107132,924.980713 172.603317,904.168152 177.171829,883.376892 
	C182.990158,856.897827 188.998550,830.460022 195.017776,804.025574 
	C205.293991,758.895935 217.559586,714.287292 230.330032,669.812561 
	C236.591202,648.007263 243.935791,626.653503 254.938629,606.665833 
	C264.289520,589.679199 276.643280,575.588745 292.956299,565.044250 
	C294.930603,563.768127 297.063507,562.876526 295.877472,559.693848 
	C288.882446,540.922668 291.044769,522.027405 295.405731,503.152161 
	C300.573975,480.782959 307.036316,458.699677 310.138428,435.874268 
	C310.443756,433.627563 310.849731,431.432190 310.397186,427.878876 
	C301.832520,455.366638 289.794769,480.470276 284.938171,507.835449 
	C282.509918,521.517944 281.819122,535.316711 287.002655,548.719788 
	C287.344818,549.604553 287.421021,550.592163 287.801270,552.379761 
	C284.792419,550.928040 284.315460,548.640503 283.686707,546.601624 
	C279.241669,532.188354 280.087341,517.720093 283.193115,503.192322 
	C287.493439,483.076691 294.997986,463.995453 302.109192,444.811310 
	C310.290131,422.741425 314.601074,400.175293 315.023438,376.548218 
	C315.443390,353.055847 315.438690,329.564209 315.813110,306.075195 
	C316.256287,278.275391 316.681915,250.475159 321.611053,222.974930 
	C335.894531,143.286011 379.969147,88.671928 457.346649,62.587971 
	C483.003754,53.938957 509.662231,50.838634 536.693726,53.791641 
	C586.358643,59.217216 628.597290,79.316460 661.734985,117.510712 
	C690.538635,150.709671 706.464050,189.619766 714.333313,232.348587 
	C718.991638,257.642761 720.426331,283.194153 721.438721,308.827179 
	C722.385071,332.787079 721.985352,356.820221 724.425476,380.697540 
	C726.429138,400.303345 731.883301,419.213440 737.747131,437.956207 
	C743.560669,456.538239 749.875061,474.963348 755.713379,493.537903 
	C759.875000,506.778320 762.481750,520.322388 761.327026,534.312561 
	C760.704468,541.854980 758.696655,549.054077 754.971497,555.693787 
	C754.025757,557.379517 753.292969,559.346069 751.182861,560.042908 
	C750.201843,559.246094 750.786377,558.471497 751.163208,557.821899 
	C760.044983,542.506653 760.179260,526.142517 757.040771,509.370117 
	C753.285095,489.300171 745.109253,470.579681 739.248169,451.151886 
	C734.932678,436.847076 730.644897,422.537903 726.593323,408.116302 
	C726.317139,418.396881 728.378418,428.406464 729.897766,438.464630 
	C733.925232,465.124908 741.983643,491.006134 745.475525,517.754517 
	C747.337891,532.021118 747.458862,546.346680 742.452454,560.202637 
	C741.455994,562.960571 741.305725,564.917786 744.479614,566.743347 
	C764.295044,578.140625 778.192688,595.083008 789.136230,614.818787 
	C801.935974,637.901978 809.141785,663.047119 816.229370,688.189575 
	C827.652588,728.712341 837.153809,769.738098 845.687317,810.941650 
	C854.555359,853.760376 863.857056,896.508118 870.619690,939.756958 
	C872.813293,953.785889 869.995667,951.538391 884.020752,951.599487 
	C908.519897,951.706116 933.019958,951.600769 957.519592,951.593811 
	C966.019409,951.591370 969.172058,953.253235 969.180359,957.689880 
	C969.188354,961.949097 965.381409,964.069336 957.492920,964.071289 
	C838.161072,964.100159 718.829224,964.122925 599.497375,964.136047 
	C542.498230,964.142334 485.499115,964.125427 428.000000,964.119263 
M635.816956,400.360291 
	C641.991699,382.122314 643.933411,363.063110 646.692383,344.165283 
	C648.971619,328.553711 650.046265,312.745453 654.428711,297.479950 
	C654.988831,295.528961 655.054749,293.586548 653.883057,291.705597 
	C647.251770,281.059723 642.173340,269.668152 637.772888,257.953064 
	C637.322510,256.754211 637.100159,255.030029 635.427490,255.097290 
	C630.023926,255.314514 628.937195,251.048813 627.614929,247.430634 
	C624.130188,237.895279 621.073547,228.203857 617.614746,218.658524 
	C615.961060,214.094604 614.825623,209.219757 611.420044,204.818268 
	C609.554016,208.193497 610.363220,211.244003 610.326355,214.124969 
	C610.215759,222.773895 608.359131,230.959457 604.300415,238.597275 
	C603.170044,240.724579 601.484192,242.469696 598.773132,242.144791 
	C596.222107,241.839081 594.589172,240.211548 593.770935,237.816101 
	C593.288208,236.402817 592.867737,234.961624 592.526367,233.507828 
	C590.547913,225.081360 588.386475,216.721878 585.562378,208.516205 
	C576.459717,182.067337 564.032654,157.280853 548.663391,133.952637 
	C547.086060,131.558502 545.864929,128.631149 542.866760,127.547501 
	C540.473877,128.781723 540.074951,131.031296 539.336060,133.009979 
	C530.166199,157.567078 517.705688,180.243942 500.342041,199.984573 
	C490.642639,211.011780 480.249878,221.412415 466.699554,227.796173 
	C463.268219,229.412720 459.172211,232.380859 455.639008,228.674881 
	C452.028625,224.887894 455.030975,220.768906 456.763092,217.137650 
	C460.990692,208.274780 465.665497,199.623596 469.825104,190.730438 
	C472.739594,184.499237 475.992645,178.336182 477.017426,171.252701 
	C474.634552,173.178467 472.601196,175.308151 470.822845,177.632889 
	C459.982758,191.803436 448.496216,205.424957 435.833435,217.995483 
	C425.326385,228.425980 415.167114,239.294724 402.632874,247.440567 
	C399.757050,249.309509 396.645325,251.942642 393.072998,249.436752 
	C389.799347,247.140381 390.988434,243.546738 391.350464,240.214966 
	C392.256592,231.875549 395.736420,224.022385 396.219482,214.862885 
	C392.593201,219.791321 390.465942,224.648880 388.717346,229.653336 
	C381.576202,250.091324 373.692749,270.419098 377.308868,292.793793 
	C378.209747,298.367950 379.523376,303.878632 380.330109,309.464294 
	C383.419678,330.854614 386.398254,352.261047 389.383118,373.666351 
	C392.021393,392.586426 397.677765,410.339630 409.621979,425.606781 
	C439.511658,463.811829 501.797821,489.638153 555.165894,471.276764 
	C591.551758,458.758148 620.566711,437.992584 635.816956,400.360291 
M797.233398,720.789917 
	C799.740112,714.617737 802.127380,708.393188 804.800659,702.294006 
	C806.280457,698.917847 806.572632,695.631592 805.567261,692.136536 
	C798.709656,668.297791 792.404236,644.253296 780.763550,622.122681 
	C769.917297,601.502258 755.355957,584.279236 734.623657,572.919556 
	C716.696655,563.096924 697.227173,557.160461 677.977295,550.687927 
	C676.933472,550.336975 675.717896,549.844360 674.849792,551.254272 
	C674.985779,553.566162 676.673462,555.082703 677.879517,556.820251 
	C681.107422,561.470764 684.571167,565.963440 687.671509,570.695496 
	C700.404663,590.130493 711.219666,610.565308 718.580688,632.656982 
	C723.042542,646.047791 718.936584,654.393677 706.009705,659.807556 
	C696.774597,663.675354 687.087402,666.186951 677.595032,669.280273 
	C670.069519,671.732666 662.491699,674.024658 654.915283,676.394653 
	C655.569458,678.821167 657.360657,679.269836 658.674683,680.140930 
	C669.787842,687.508606 680.901306,694.888977 690.695557,704.001953 
	C704.119690,716.492371 705.903564,727.830017 697.214050,743.768433 
	C692.736694,751.980835 687.491638,759.691528 681.753601,767.055725 
	C663.725037,790.193176 643.712952,811.648010 624.786743,834.025146 
	C606.400513,855.763733 589.232849,878.170410 582.459900,906.681885 
	C581.931152,908.907654 581.913879,912.543762 578.655029,912.271057 
	C574.926453,911.959106 575.682556,908.076782 575.063660,905.472168 
	C574.915710,904.849609 575.078918,904.147827 575.127869,903.484619 
	C576.351562,886.923279 582.655518,872.229248 591.708923,858.564331 
	C606.764954,835.839355 625.493286,816.099915 643.094727,795.444641 
	C657.783203,778.207581 673.071167,761.440308 685.194519,742.179688 
	C694.958191,726.667969 694.127808,721.271057 680.121460,709.461426 
	C665.574280,697.195679 649.414490,687.130981 634.081970,675.936096 
	C627.010376,670.773010 620.186584,665.193909 612.151489,660.862244 
	C611.764221,661.840576 611.441345,662.403015 611.317078,663.006287 
	C603.627502,700.334412 592.660034,736.871216 584.564758,774.105469 
	C578.446350,802.247131 573.625244,830.587341 570.347229,859.192749 
	C567.307617,885.718079 566.856628,912.345642 567.174316,939.009949 
	C567.325989,951.736877 567.191833,951.596863 579.761658,951.755615 
	C583.984131,951.809021 585.801880,950.947571 586.208496,946.144226 
	C587.041138,936.307007 596.007874,929.789368 606.917358,930.148315 
	C616.497192,930.463562 624.716370,937.899475 625.197144,947.189575 
	C625.379578,950.714600 626.609436,951.758850 629.981140,951.723572 
	C643.643188,951.580933 657.307373,951.632996 670.970764,951.627808 
	C696.798096,951.617981 722.625488,951.580261 748.452576,951.658813 
	C751.969604,951.669617 754.255127,951.170105 753.944580,946.815247 
	C753.577698,941.669617 753.795532,936.485046 753.536560,931.328491 
	C751.966858,900.075806 750.322937,868.826843 748.725037,837.575562 
	C747.798523,819.454041 746.859802,801.332886 746.044739,783.206238 
	C745.848145,778.834717 745.051392,774.340088 747.012268,769.901733 
	C749.476257,772.575012 749.476257,772.575012 750.914490,777.877930 
	C755.620911,741.791870 759.503174,706.516663 766.397278,671.685486 
	C764.528870,718.328308 757.584961,764.614929 757.006775,811.289612 
	C757.527344,811.364441 758.047913,811.439270 758.568542,811.514038 
	C771.352234,781.505615 784.135986,751.497192 797.233398,720.789917 
M270.730225,735.498657 
	C270.976318,709.092957 271.890839,682.723450 274.059814,656.421692 
	C274.676880,656.435181 275.293945,656.448669 275.911011,656.462158 
	C275.911011,683.535339 275.911011,710.608521 275.911011,737.681641 
	C279.949951,729.166382 280.459351,719.787292 284.893311,711.187195 
	C286.889771,713.445435 286.286011,715.368164 286.122040,717.066589 
	C285.082703,727.834534 283.911102,738.589905 282.754425,749.346375 
	C280.281616,772.341187 277.698944,795.324585 275.335114,818.330566 
	C273.124237,839.848145 271.149841,861.389954 269.049072,882.918945 
	C266.932190,904.612976 264.810181,926.306702 262.627167,947.994141 
	C262.358307,950.665344 263.448212,951.695007 265.965271,951.657166 
	C267.798065,951.629578 269.631775,951.670776 271.464966,951.660278 
	C303.446198,951.477417 335.431458,950.903809 367.407227,951.239746 
	C389.402374,951.470825 411.399567,951.358765 433.389709,951.775696 
	C438.307648,951.868896 439.794403,950.091614 439.705933,945.404297 
	C439.489044,933.908508 439.850189,922.400757 439.574066,910.907532 
	C439.332825,900.866638 437.449249,891.106689 433.473114,881.759216 
	C426.956299,866.438721 416.174561,854.168579 405.399628,841.891968 
	C390.893005,825.363525 376.013336,809.158447 362.357880,791.897705 
	C350.766754,777.246338 339.390564,762.447876 331.530518,745.332336 
	C324.134369,729.226868 326.029480,718.612671 338.388672,705.853394 
	C347.829712,696.106750 358.517120,687.910461 369.730011,680.344727 
	C371.607941,679.077637 373.826569,678.124695 374.861908,675.784241 
	C373.251160,673.918640 370.932312,673.983459 368.936646,673.389282 
	C354.259338,669.019836 339.354736,665.330872 325.241455,659.255188 
	C314.150299,654.480652 310.552124,646.949463 314.058807,635.522278 
	C322.007202,609.621277 335.026428,586.276001 350.449402,564.161255 
	C353.987579,559.087891 358.439453,554.617493 361.470367,548.820740 
	C358.768097,547.883423 356.838959,548.607727 355.005127,549.256958 
	C345.745880,552.535400 336.420898,555.660339 327.303345,559.300842 
	C299.176331,570.531250 276.385529,587.779114 262.608673,615.730164 
	C250.597290,640.099304 242.584351,665.763184 235.936005,691.955200 
	C235.210297,694.814148 235.865967,697.614746 236.512634,700.341187 
	C243.773270,730.953064 252.349503,761.206177 261.626038,791.260376 
	C262.653168,794.588074 263.205444,798.206787 265.716278,801.676147 
	C269.183289,779.659851 271.292145,758.185669 270.730225,735.498657 
M547.359619,951.668213 
	C555.786194,951.664673 555.790955,951.664673 555.783997,943.226013 
	C555.770752,927.242371 555.900452,911.271667 556.560669,895.287781 
	C557.179260,880.311279 558.411194,865.391541 560.026428,850.530396 
	C563.369934,819.767456 569.342957,789.443298 576.496460,759.336365 
	C583.836060,728.446411 592.467651,697.871948 599.040039,666.799377 
	C599.823853,663.093811 601.379272,659.324585 600.082214,654.523193 
	C573.952698,673.294861 544.999939,681.722656 513.720642,680.867493 
	C482.441772,680.012268 453.508301,670.988281 427.756622,650.934204 
	C428.159302,659.725281 429.629120,667.193665 430.990723,674.647888 
	C437.806549,711.962585 448.377899,748.429077 456.124298,785.542297 
	C461.871002,813.075073 466.597137,840.745850 469.138824,868.749390 
	C471.458862,894.310913 471.678314,919.964783 471.237427,945.609802 
	C471.153900,950.468750 472.649139,951.813599 477.437592,951.766296 
	C500.422119,951.539307 523.410156,951.665771 547.359619,951.668213 
M837.163330,826.194397 
	C828.788391,786.092712 819.849487,746.125977 808.744446,706.590393 
	C806.830444,711.029175 805.474915,715.471375 803.950562,719.854736 
	C791.366028,756.041870 777.612061,791.761658 761.202454,826.414368 
	C760.270630,828.382141 759.525574,830.272705 759.655579,832.587341 
	C761.269897,861.332031 762.649536,890.090576 764.417236,918.825439 
	C764.980286,927.977783 765.275818,937.116577 765.406067,946.274536 
	C765.433716,948.213318 765.262207,950.404663 767.557068,951.447815 
	C771.969238,953.453430 777.758118,951.272156 779.440857,946.797363 
	C786.823364,927.165405 794.762024,907.737183 801.126282,887.730530 
	C802.898987,882.157898 804.769775,876.616394 806.595581,871.060608 
	C807.077881,871.200562 807.560181,871.340515 808.042480,871.480469 
	C803.119751,898.260742 796.285706,924.601929 788.150269,951.124146 
	C812.597839,951.124146 836.231628,951.124146 860.341858,951.124146 
	C858.604797,935.670288 855.815735,920.986206 853.013855,906.321228 
	C847.957336,879.855835 842.627625,853.442566 837.163330,826.194397 
M523.636353,605.651367 
	C528.540649,605.304260 533.019714,603.384644 537.447266,601.550964 
	C561.733276,591.492615 581.385620,576.668152 589.712646,550.260803 
	C590.751160,546.967407 590.547546,544.742249 587.537598,542.566406 
	C579.387024,536.674377 575.294128,528.281433 573.770508,518.537170 
	C571.939270,506.825867 571.773865,495.013336 571.792664,483.192322 
	C571.802979,476.729736 571.262634,476.254669 565.328186,478.669586 
	C553.501770,483.482025 541.121765,485.918671 528.536316,487.327271 
	C509.124908,489.499908 490.465637,485.641388 472.139648,479.627045 
	C465.794952,477.544861 465.390961,477.751831 465.358093,484.571686 
	C465.302734,496.052307 465.413666,507.511230 463.438019,518.911987 
	C461.880310,527.901184 457.928497,535.406189 450.552185,540.618835 
	C446.584686,543.422607 445.715271,546.737610 446.475433,550.914734 
	C448.818878,563.792236 455.008392,574.668518 464.527710,583.506165 
	C476.662811,594.772339 491.486053,600.999695 507.233551,605.318298 
	C509.076447,605.823669 510.759247,605.848206 512.512451,604.865295 
	C516.045471,602.884460 519.526978,603.225586 523.636353,605.651367 
M430.770386,725.525574 
	C425.602203,704.347717 421.006470,683.042847 417.558380,660.813232 
	C415.182098,662.182068 413.840271,662.828125 412.634186,663.668884 
	C393.909821,676.720581 375.085449,689.640198 357.205383,703.849365 
	C353.303345,706.950256 349.636475,710.402588 346.182739,714.001526 
	C336.272125,724.328796 335.843048,731.978699 343.872284,745.991150 
	C355.532440,766.340210 370.367981,784.305969 385.530090,802.057251 
	C401.104614,820.291443 417.851929,837.535217 431.985687,856.989990 
	C441.768250,870.455444 447.977539,885.163574 449.515625,901.971802 
	C450.826996,916.301880 449.843231,930.601990 450.309021,944.905762 
	C450.372528,946.855896 449.818268,948.897095 450.885437,950.722473 
	C458.148712,951.751099 459.777069,951.106323 459.830444,946.711914 
	C460.243317,912.725647 460.181793,878.744141 455.494293,844.986145 
	C449.928284,804.901550 440.572357,765.585205 430.770386,725.525574 
M224.769348,951.526978 
	C228.011383,950.275024 226.732590,947.650146 226.361343,945.558228 
	C224.995789,937.863831 223.095718,930.250610 222.046066,922.518738 
	C221.383728,917.640137 219.245804,912.826050 220.188934,907.482544 
	C221.952057,908.302002 222.061295,909.519592 222.237900,910.642029 
	C223.792755,920.523682 226.363617,930.172241 229.351578,939.685120 
	C233.894882,954.150146 230.086807,951.188416 245.636597,951.753540 
	C249.929062,951.909546 251.192627,949.943298 251.505783,946.294434 
	C252.885132,930.222717 254.197479,914.144226 255.734512,898.087402 
	C257.477661,879.877136 259.588440,861.701294 261.243317,843.483643 
	C262.312042,831.718323 265.854645,819.868713 260.106262,808.200073 
	C258.138641,804.205994 257.085052,799.739563 255.806122,795.431824 
	C246.393341,763.727112 239.719009,731.406555 234.228134,697.678650 
	C232.719238,702.655029 231.444412,706.547607 230.357925,710.492065 
	C221.744507,741.762756 213.885193,773.224487 206.685043,804.848999 
	C195.941345,852.037537 184.781967,899.135315 175.855072,946.721741 
	C175.102173,950.735229 176.135345,951.748291 179.939148,951.712097 
	C194.597351,951.572571 209.257416,951.625244 224.769348,951.526978 
M680.567566,656.913574 
	C686.573120,654.921997 692.580933,652.937439 698.583679,650.937256 
	C709.940491,647.153137 711.381836,644.172424 707.221008,632.893677 
	C701.206604,616.590515 693.720886,600.973633 684.601685,586.195496 
	C668.761108,560.525024 650.976807,536.526367 625.792114,518.975525 
	C613.917175,510.700012 601.202698,504.412048 587.111633,500.902771 
	C583.538330,500.012878 582.170227,500.831970 582.291443,504.586273 
	C582.458618,509.762573 582.851807,514.907471 583.975342,519.953064 
	C585.017334,524.632263 586.522522,529.143372 590.885559,532.014709 
	C592.699402,530.139465 590.521545,527.810730 592.310852,526.015076 
	C596.358704,525.513367 598.528381,528.547729 600.425598,531.314697 
	C603.437256,535.706787 605.736877,540.527527 607.320740,545.670593 
	C617.332214,578.180359 619.852417,611.227051 614.524475,644.846069 
	C614.129395,647.339111 614.558167,649.277222 616.920593,650.837341 
	C624.843811,656.069519 632.635132,661.500977 640.491333,666.835083 
	C642.160095,667.968201 643.740845,668.705139 646.029602,667.945801 
	C657.245972,664.224121 668.538330,660.731567 680.567566,656.913574 
M380.209686,665.193115 
	C385.467712,667.752380 390.002411,666.754272 394.385834,662.924561 
	C397.374237,660.313599 400.701355,657.911987 404.240448,656.144531 
	C413.222717,651.658630 418.329498,645.538757 414.939789,634.916687 
	C414.599396,633.850098 414.832184,632.599670 414.803589,631.434509 
	C414.217590,607.560486 416.024628,583.903442 421.889801,560.699707 
	C424.866180,548.924683 428.178162,537.193237 435.652771,527.225769 
	C437.367249,524.939514 439.307129,522.885376 441.967346,521.688904 
	C443.187531,521.140076 444.540100,520.586487 445.703491,521.692322 
	C446.950470,522.877625 446.131927,524.127808 445.551971,525.329102 
	C444.247894,528.030090 442.959473,530.738647 441.295227,534.215942 
	C454.059631,527.508728 456.527283,514.064331 454.007263,499.007629 
	C451.512238,498.709534 449.104309,499.299988 446.710785,499.940002 
	C433.830811,503.384064 422.301788,509.635834 411.511200,517.270630 
	C369.417450,547.053711 343.779938,588.908325 325.141968,635.772949 
	C321.680725,644.476196 323.036530,646.770630 331.834900,649.999268 
	C347.462555,655.733826 363.409943,660.474304 380.209686,665.193115 
M593.593140,555.963806 
	C592.938293,557.668396 592.380066,559.417786 591.614197,561.070923 
	C579.690857,586.807617 558.365417,600.973816 532.245300,609.197998 
	C530.413452,609.774780 528.383545,609.815125 526.908142,611.215332 
	C530.010315,617.655090 529.536621,622.059692 525.523376,625.405701 
	C521.327209,628.904236 513.044617,628.993530 508.641937,625.587646 
	C504.351410,622.268555 504.118225,619.087341 507.802368,611.038879 
	C505.230804,610.302002 502.737823,609.503052 500.202454,608.875366 
	C488.401184,605.953735 477.580994,600.809265 467.902771,593.584351 
	C453.802002,583.057922 444.086945,569.564453 441.579803,551.642395 
	C441.359283,550.066040 441.456818,547.916016 439.373932,547.630005 
	C437.200836,547.331604 436.226715,549.167297 435.570435,550.953308 
	C435.055298,552.355103 434.603729,553.788147 434.239197,555.236267 
	C431.519043,566.042786 429.159607,576.912781 427.703705,587.983398 
	C427.289154,591.135742 428.001068,593.258301 430.165497,595.531677 
	C457.377960,624.113831 490.673553,637.343811 529.924194,633.630859 
	C559.109741,630.870178 583.355652,617.228699 603.500122,596.111511 
	C605.259705,594.267029 605.899414,592.250793 605.520508,589.751465 
	C604.174744,580.874512 603.109741,571.948730 601.510132,563.119080 
	C600.586792,558.022034 599.925354,552.703735 596.726807,547.984863 
	C594.957581,550.382324 594.581055,552.878357 593.593140,555.963806 
M482.977875,639.680298 
	C461.564362,633.973450 443.051331,623.019287 426.101074,606.975708 
	C425.058929,617.025940 424.771820,625.602173 426.160065,634.185242 
	C426.535248,636.505005 428.526276,637.746460 430.159058,639.126770 
	C453.240387,658.639160 480.270813,668.788818 510.083893,670.456299 
	C543.998779,672.353210 574.303406,661.576172 601.078369,640.738281 
	C603.236084,639.059021 604.275818,636.981567 604.569153,634.409119 
	C604.964478,630.942627 605.523071,627.474365 605.603027,623.997437 
	C605.706848,619.479309 606.611084,614.890686 605.248169,609.978516 
	C569.640259,641.133728 529.346008,651.419128 482.977875,639.680298 
M689.803101,317.742188 
	C687.786072,311.911377 684.634888,306.981659 679.082153,303.853271 
	C671.103027,299.357849 661.449707,303.722778 660.163391,312.634094 
	C657.126526,333.672852 654.196899,354.727356 651.321716,375.788849 
	C651.001404,378.135590 649.409363,380.518982 650.991577,382.951538 
	C677.746155,383.966187 698.987000,348.840881 689.803101,317.742188 
M374.566833,381.535400 
	C376.600281,381.934509 378.667786,383.171692 380.706543,381.293884 
	C381.344299,377.426727 380.094421,373.726074 379.639374,369.967957 
	C377.226379,350.040649 374.633118,330.134216 372.378326,310.189362 
	C371.792084,305.004028 368.803802,303.072174 364.350006,302.288788 
	C360.493103,301.610413 357.077972,302.856628 354.095825,305.186646 
	C348.338470,309.685089 345.163696,315.885223 343.500305,322.791779 
	C338.406891,343.940399 347.746368,372.794037 374.566833,381.535400 
M301.008240,523.431213 
	C299.568298,533.493469 298.400421,543.560730 302.251892,553.380981 
	C303.051453,555.419617 303.612671,558.078674 307.041992,557.032776 
	C310.155334,556.083313 309.285736,553.917053 308.963440,551.795654 
	C307.189453,540.119324 306.362091,528.468201 307.381775,516.591064 
	C308.142792,507.726593 308.801392,498.825623 309.320953,489.905365 
	C305.523804,500.533508 302.827484,511.418762 301.008240,523.431213 
M733.181274,502.214630 
	C732.674622,499.821503 732.167908,497.428345 731.661255,495.035217 
	C732.588562,516.215515 733.938782,537.331543 728.647034,558.539368 
	C732.778320,558.335388 732.868408,555.672546 733.400940,553.865051 
	C738.389038,536.934143 736.671082,519.966858 733.181274,502.214630 
M602.401062,940.768433 
	C600.924805,941.498108 599.325928,942.055237 598.000671,942.997375 
	C595.961670,944.446777 594.917847,946.541992 595.620544,949.079102 
	C596.354858,951.730347 598.647156,951.852539 600.856140,951.867859 
	C604.010925,951.889709 607.167297,951.872070 610.320984,951.793274 
	C611.968689,951.752075 613.810730,951.814880 614.495422,949.830383 
	C615.193176,947.808167 614.873291,945.790161 613.423218,944.223755 
	C610.669128,941.248840 607.310791,939.700989 602.401062,940.768433 
M510.682159,619.661072 
	C513.422729,623.431274 517.045410,623.422485 520.849609,621.812805 
	C523.004639,620.900818 524.286499,619.092468 523.703430,616.625183 
	C523.164490,614.344482 521.184082,614.319824 519.315796,614.305786 
	C517.826050,614.294617 516.333191,614.347717 514.847107,614.270081 
	C511.507629,614.095642 509.738678,615.350769 510.682159,619.661072 
z"/>
<path fill="#000000" opacity="1.000000" stroke="none" 
	d="
M454.505554,329.948181 
	C447.703400,332.321503 442.268585,330.489105 438.977631,324.470856 
	C433.236023,313.971069 433.282501,303.131714 438.301117,292.415833 
	C440.653534,287.392944 444.875336,284.465088 450.646942,284.725586 
	C456.346008,284.982788 459.561615,288.575287 461.503204,293.585510 
	C464.878052,302.294067 464.830231,311.112823 462.113434,319.933350 
	C460.862946,323.993317 458.501740,327.389008 454.505554,329.948181 
z"/>
<path fill="#000000" opacity="1.000000" stroke="none" 
	d="
M567.585327,292.841797 
	C570.787781,287.783691 574.554565,283.993408 580.686157,284.888855 
	C586.901917,285.796539 589.877197,290.400513 591.623108,295.936005 
	C594.553772,305.227661 593.978699,314.366028 589.875793,323.170471 
	C587.626587,327.997070 583.893005,331.157104 578.265381,331.289246 
	C572.582153,331.422638 569.385559,327.835175 567.368103,323.199493 
	C563.035522,313.243896 563.177612,303.182190 567.585327,292.841797 
z"/>
<path fill="#000000" opacity="1.000000" stroke="none" 
	d="
M476.567749,396.459961 
	C474.216644,394.528107 472.410461,392.574219 471.087830,390.234741 
	C470.312927,388.864136 469.942322,387.251312 471.447601,386.204407 
	C472.897369,385.196167 473.893005,386.460724 474.759735,387.478638 
	C495.341187,411.650909 539.860107,408.736664 557.959167,388.589386 
	C559.080261,387.341492 560.403381,385.103607 562.380981,387.094269 
	C564.272644,388.998505 562.606750,390.861969 561.263977,392.289551 
	C554.471802,399.510681 546.121399,404.262726 536.593750,406.677338 
	C515.268860,412.081787 495.045471,410.268341 476.567749,396.459961 
z"/>
<path fill="#000000" opacity="1.000000" stroke="none" 
	d="
M434.319183,247.337250 
	C425.033051,249.532654 416.890076,253.453522 408.230377,259.125488 
	C413.740082,246.653458 455.916901,237.210205 465.855591,245.637802 
	C454.902191,245.038284 444.672913,244.299622 434.319183,247.337250 
z"/>
<path fill="#000000" opacity="1.000000" stroke="none" 
	d="
M611.446899,255.498016 
	C595.036743,246.392426 577.808716,243.645325 559.205078,246.483871 
	C566.101868,238.083450 609.295837,245.112869 617.629150,258.115723 
	C615.068237,258.428528 613.590149,256.587402 611.446899,255.498016 
z"/>
</svg>
